<?xml version="1.0" encoding="UTF-8" standalone="no"?>
<svg xmlns:xlink="http://www.w3.org/1999/xlink" height="74.0px" width="74.0px" xmlns="http://www.w3.org/2000/svg">
  <g transform="matrix(1.0, 0.0, 0.0, 1.0, 37.0, 37.0)">
    <path d="M-18.5 0.0 Q-18.5 7.65 -13.1 13.05 -7.65 18.5 0.0 18.5 7.65 18.5 13.05 13.05 18.5 7.65 18.5 0.0 18.5 -7.65 13.05 -13.1 7.65 -18.5 0.0 -18.5 -7.65 -18.5 -13.1 -13.1 -18.5 -7.65 -18.5 0.0 M-25.0 0.0 Q-25.0 10.35 -17.7 17.65 -10.4 25.0 0.0 25.0 10.35 25.0 17.7 17.65 25.0 10.35 25.0 0.0 25.0 -10.35 17.7 -17.7 10.35 -25.0 0.0 -25.0 -10.4 -25.0 -17.7 -17.7 -25.0 -10.35 -25.0 0.0" fill="#80ffff" fill-opacity="0.7529412" fill-rule="evenodd" stroke="none">
      <animate attributeName="fill" dur="2s" repeatCount="indefinite" values="#80ffff;#80ffff"/>
      <animate attributeName="fill-opacity" dur="2s" repeatCount="indefinite" values="0.7529412;0.2509804"/>
      <animate attributeName="d" dur="2s" repeatCount="indefinite" values="M-18.5 0.0 Q-18.5 7.65 -13.1 13.05 -7.65 18.5 0.0 18.5 7.65 18.5 13.05 13.05 18.5 7.65 18.5 0.0 18.5 -7.65 13.05 -13.1 7.65 -18.5 0.0 -18.5 -7.65 -18.5 -13.1 -13.1 -18.5 -7.65 -18.5 0.0 M-25.0 0.0 Q-25.0 10.35 -17.7 17.65 -10.4 25.0 0.0 25.0 10.35 25.0 17.7 17.65 25.0 10.35 25.0 0.0 25.0 -10.35 17.7 -17.7 10.35 -25.0 0.0 -25.0 -10.4 -25.0 -17.7 -17.7 -25.0 -10.35 -25.0 0.0;M-32.85 0.0 Q-32.85 13.6 -23.2 23.25 -13.6 32.85 0.0 32.85 13.6 32.85 23.25 23.25 32.85 13.6 32.85 0.0 32.85 -13.6 23.25 -23.2 13.6 -32.85 0.0 -32.85 -13.6 -32.85 -23.2 -23.2 -32.85 -13.6 -32.85 0.0 M-37.0 0.0 Q-37.0 15.3 -26.2 26.15 -15.35 37.0 0.0 37.0 15.35 37.0 26.15 26.15 37.0 15.3 37.0 0.0 37.0 -15.35 26.15 -26.2 15.35 -37.0 0.0 -37.0 -15.35 -37.0 -26.2 -26.2 -37.0 -15.35 -37.0 0.0"/>
    </path>
    <path d="M-25.0 0.0 Q-25.0 -10.35 -17.7 -17.7 -10.4 -25.0 0.0 -25.0 10.35 -25.0 17.7 -17.7 25.0 -10.35 25.0 0.0 25.0 10.35 17.7 17.65 10.35 25.0 0.0 25.0 -10.4 25.0 -17.7 17.65 -25.0 10.35 -25.0 0.0 M-18.5 0.0 Q-18.5 -7.65 -13.1 -13.1 -7.65 -18.5 0.0 -18.5 7.65 -18.5 13.05 -13.1 18.5 -7.65 18.5 0.0 18.5 7.65 13.05 13.05 7.65 18.5 0.0 18.5 -7.65 18.5 -13.1 13.05 -18.5 7.65 -18.5 0.0" fill="none" stroke="#000000" stroke-linecap="round" stroke-linejoin="round" stroke-opacity="0.0" stroke-width="1.0">
      <animate attributeName="stroke" dur="2s" repeatCount="indefinite" values="#000000;#000001"/>
      <animate attributeName="stroke-width" dur="2s" repeatCount="indefinite" values="0.0;0.0"/>
      <animate attributeName="fill-opacity" dur="2s" repeatCount="indefinite" values="0.0;0.0"/>
      <animate attributeName="d" dur="2s" repeatCount="indefinite" values="M-25.0 0.0 Q-25.0 -10.35 -17.7 -17.7 -10.4 -25.0 0.0 -25.0 10.35 -25.0 17.7 -17.7 25.0 -10.35 25.0 0.0 25.0 10.35 17.7 17.65 10.35 25.0 0.0 25.0 -10.4 25.0 -17.7 17.65 -25.0 10.35 -25.0 0.0 M-18.5 0.0 Q-18.5 -7.65 -13.1 -13.1 -7.65 -18.5 0.0 -18.5 7.65 -18.5 13.05 -13.1 18.5 -7.65 18.5 0.0 18.5 7.65 13.05 13.05 7.65 18.5 0.0 18.5 -7.65 18.5 -13.1 13.05 -18.5 7.65 -18.5 0.0;M-37.0 0.0 Q-37.0 -15.35 -26.2 -26.2 -15.35 -37.0 0.0 -37.0 15.35 -37.0 26.15 -26.2 37.0 -15.35 37.0 0.0 37.0 15.3 26.15 26.15 15.35 37.0 0.0 37.0 -15.35 37.0 -26.2 26.15 -37.0 15.3 -37.0 0.0 M-32.85 0.0 Q-32.85 -13.6 -23.2 -23.2 -13.6 -32.85 0.0 -32.85 13.6 -32.85 23.25 -23.2 32.85 -13.6 32.85 0.0 32.85 13.6 23.25 23.25 13.6 32.85 0.0 32.85 -13.6 32.85 -23.2 23.25 -32.85 13.6 -32.85 0.0"/>
    </path>
  </g>
</svg>
